<?xml version="1.0" standalone="no"?>
<!DOCTYPE svg PUBLIC "-//W3C//DTD SVG 20010904//EN"
 "http://www.w3.org/TR/2001/REC-SVG-20010904/DTD/svg10.dtd">
<svg version="1.0" xmlns="http://www.w3.org/2000/svg"
 width="512.000000pt" height="512.000000pt" viewBox="0 0 512.000000 512.000000"
 preserveAspectRatio="xMidYMid meet">
<metadata>
Created by potrace 1.11, written by Peter Selinger 2001-2013
</metadata>
<g transform="translate(0.000000,512.000000) scale(0.100000,-0.100000)"
fill="#000000" stroke="none">
<path d="M2379 5116 c-2 -2 -38 -6 -79 -10 -64 -6 -207 -29 -315 -51 -16 -3
-77 -19 -135 -36 -495 -140 -955 -446 -1281 -851 -82 -102 -219 -300 -219
-317 0 -5 -4 -11 -8 -13 -19 -8 -168 -333 -207 -453 -98 -298 -130 -505 -129
-835 0 -184 3 -241 19 -345 3 -16 7 -43 9 -60 14 -98 50 -247 92 -377 14 -43
22 -83 18 -89 -4 -8 -3 -9 4 -5 7 4 14 -4 18 -21 4 -15 23 -62 42 -103 49
-107 62 -139 61 -146 0 -4 3 -10 8 -13 4 -3 21 -31 37 -61 50 -94 169 -270
253 -375 118 -148 216 -244 423 -419 75 -63 286 -195 415 -260 47 -24 82 -46
77 -51 -4 -5 -2 -5 4 -2 10 6 37 -3 129 -43 125 -54 371 -122 532 -146 21 -3
49 -7 63 -10 69 -13 173 -18 345 -19 225 0 293 6 480 41 44 9 89 17 100 19 68
12 249 69 365 115 460 182 854 490 1144 893 64 90 186 291 186 308 0 5 5 7 12
3 6 -4 8 -3 5 3 -3 5 10 43 30 84 30 62 110 261 118 294 1 6 5 17 8 25 15 39
71 271 82 340 23 144 29 243 30 425 0 166 -6 285 -19 360 -3 17 -8 44 -10 60
-3 17 -10 55 -16 85 -6 30 -14 66 -16 80 -12 61 -74 266 -99 325 -6 17 -25 62
-41 100 -31 76 -111 236 -138 278 -10 14 -14 32 -10 38 4 7 3 9 -3 6 -6 -4
-28 21 -49 56 -143 234 -394 499 -649 688 -33 24 -61 47 -63 52 -2 4 -8 7 -14
7 -6 0 -41 20 -77 43 -231 152 -622 304 -875 342 -21 3 -41 7 -45 9 -3 2 -35
7 -71 11 -36 4 -74 9 -85 12 -23 5 -451 14 -456 9z"/>
</g>
</svg>
